<?xml version="1.0" encoding="UTF-8"?>
<svg width="14px" height="14px" viewBox="0 0 14 14" version="1.1" xmlns="http://www.w3.org/2000/svg" xmlns:xlink="http://www.w3.org/1999/xlink">
    <!-- Generator: Sketch 51.1 (57501) - http://www.bohemiancoding.com/sketch -->
    <title>calendar</title>
    <desc>Created with Sketch.</desc>
    <defs></defs>
    <g id="Welcome" stroke="none" stroke-width="1" fill="none" fill-rule="evenodd">
        <g id="BaoCao_DangKy" transform="translate(-850.000000, -735.000000)" fill="#ACB5BD" fill-rule="nonzero">
            <g id="calendar" transform="translate(850.000000, 735.000000)">
                <path d="M5,7.36406394 C5,7.16293909 4.83689308,7 4.63564018,7 L3.36416252,7 C3.16313981,7 3,7.16293909 3,7.36406394 L3,8.63560716 C3,8.83699513 3.16313981,9 3.36416252,9 L4.63564018,9 C4.83689308,9 5,8.83699513 5,8.63560716 L5,7.36406394 Z" id="Shape"></path>
                <path d="M8,7.36406394 C8,7.16293909 7.8368441,7 7.63596599,7 L6.36419844,7 C6.1631559,7 6,7.16293909 6,7.36406394 L6,8.63560716 C6,8.83699513 6.1631559,9 6.36419844,9 L7.63596599,9 C7.8368441,9 8,8.83699513 8,8.63560716 L8,7.36406394 Z" id="Shape"></path>
                <path d="M11,7.36406394 C11,7.16293909 10.8368602,7 10.6358375,7 L9.36435982,7 C9.16310692,7 9,7.16293909 9,7.36406394 L9,8.63560716 C9,8.83699513 9.16310692,9 9.36435982,9 L10.6358375,9 C10.8368602,9 11,8.83699513 11,8.63560716 L11,7.36406394 Z" id="Shape"></path>
                <path d="M5,10.3642972 C5,10.1628236 4.83689308,10 4.63564018,10 L3.36416252,10 C3.16313981,10 3,10.1628236 3,10.3642972 L3,11.6357357 C3,11.8370119 3.16313981,12 3.36416252,12 L4.63564018,12 C4.83689308,12 5,11.836979 5,11.6357357 L5,10.3642972 Z" id="Shape"></path>
                <path d="M8,10.3642972 C8,10.1628236 7.8368441,10 7.63596599,10 L6.36419844,10 C6.1631559,10 6,10.1628236 6,10.3642972 L6,11.6357357 C6,11.8370119 6.1631559,12 6.36419844,12 L7.63596599,12 C7.8368441,12 8,11.836979 8,11.6357357 L8,10.3642972 Z" id="Shape"></path>
                <path d="M11,10.3642972 C11,10.1628236 10.8368602,10 10.6360019,10 L9.36435982,10 C9.16310692,10 9,10.1628236 9,10.3642972 L9,11.6357357 C9,11.8370119 9.16310692,12 9.36435982,12 L10.6360019,12 C10.8368602,12 11,11.836979 11,11.6357357 L11,10.3642972 Z" id="Shape"></path>
                <path d="M12.7538642,2.0058616 L12.7538642,3.63853912 C12.7538642,4.37649276 12.1188151,4.97116893 11.3361197,4.97116893 L10.4417657,4.97116893 C9.65901159,4.97116893 9.0155448,4.37649276 9.0155448,3.63853912 L9.0155448,2 L4.9844552,2 L4.9844552,3.63853912 C4.9844552,4.37649276 4.34101774,4.97116893 3.55838099,4.97116893 L2.663851,4.97116893 C1.88118492,4.97116893 1.24616513,4.37649276 1.24616513,3.63853912 L1.24616513,2.0058616 C0.562105881,2.0252989 0,2.55889828 0,3.21476184 L0,12.7830262 C0,13.4512213 0.574512392,14 1.283326,14 L12.716674,14 C13.4244317,14 14,13.4500877 14,12.7830262 L14,3.21476184 C14,2.55889828 13.4379234,2.0252989 12.7538642,2.0058616 Z M12.3384661,12.1871888 C12.3384661,12.4759557 12.0901012,12.7102262 11.7836633,12.7102262 L2.19190497,12.7102262 C1.88546708,12.7102262 1.63710221,12.4759557 1.63710221,12.1871888 L1.63710221,7.24483481 C1.63710221,6.95595734 1.88543775,6.72168678 2.19190497,6.72168678 L11.783634,6.72168678 C12.0900719,6.72168678 12.3384367,6.95595734 12.3384367,7.24483481 L12.3384661,12.1871888 Z" id="Shape"></path>
                <path d="M2.52364257,4 L3.47635743,4 C3.76553271,4 4,3.77184193 4,3.4900304 L4,0.510154296 C4,0.228311978 3.76553271,0 3.47635743,0 L2.52364257,0 C2.23443571,0 2,0.228311978 2,0.510154296 L2,3.4900304 C2,3.77184193 2.23443571,4 2.52364257,4 Z" id="Shape"></path>
                <path d="M10.5236689,4 L11.4764891,4 C11.7655068,4 12,3.77184193 12,3.4900304 L12,0.510154296 C12.0000316,0.228311978 11.7655384,0 11.4764891,0 L10.5236689,0 C10.2344932,0 10,0.228311978 10,0.510154296 L10,3.4900304 C10,3.77184193 10.2344932,4 10.5236689,4 Z" id="Shape"></path>
            </g>
        </g>
    </g>
</svg>