<?xml version="1.0"?>
<svg xmlns="http://www.w3.org/2000/svg" height="512px" viewBox="0 0 480 480" width="512px"><g><path d="m472 264c-4.417969 0-8 3.582031-8 8 0 13.253906-10.746094 24-24 24h-120c-4.417969 0-8-3.582031-8-8s3.582031-8 8-8h48c4.417969 0 8-3.582031 8-8s-3.582031-8-8-8h-48c-4.417969 0-8-3.582031-8-8s3.582031-8 8-8h48c4.417969 0 8-3.582031 8-8s-3.582031-8-8-8h-48c-4.417969 0-8-3.582031-8-8s3.582031-8 8-8h48c4.417969 0 8-3.582031 8-8s-3.582031-8-8-8h-48c-4.417969 0-8-3.582031-8-8s3.582031-8 8-8h72c4.417969 0 8-3.582031 8-8s-3.582031-8-8-8h-24c-4.417969 0-8-3.582031-8-8v-8c0-4.417969 3.582031-8 8-8h32c13.253906 0 24 10.746094 24 24v8c0 4.417969 3.582031 8 8 8h8c13.253906 0 24 10.746094 24 24 0 4.417969 3.582031 8 8 8s8-3.582031 8-8c0-22.089844-17.910156-40-40-40 0-22.089844-17.910156-40-40-40h-32c-13.253906 0-24 10.746094-24 24v.558594c-25.839844-30.664063-63.898438-48.363282-104-48.363282s-78.160156 17.699219-104 48.363282v-.558594c0-13.253906-10.746094-24-24-24h-32c-22.089844 0-40 17.910156-40 40-22.089844 0-40 17.910156-40 40 0 4.417969 3.582031 8 8 8s8-3.582031 8-8c0-13.253906 10.746094-24 24-24h8c4.417969 0 8-3.582031 8-8v-8c0-13.253906 10.746094-24 24-24h32c4.417969 0 8 3.582031 8 8v8c0 4.417969-3.582031 8-8 8h-24c-4.417969 0-8 3.582031-8 8s3.582031 8 8 8h72c4.417969 0 8 3.582031 8 8s-3.582031 8-8 8h-48c-4.417969 0-8 3.582031-8 8s3.582031 8 8 8h48c4.417969 0 8 3.582031 8 8s-3.582031 8-8 8h-48c-4.417969 0-8 3.582031-8 8s3.582031 8 8 8h48c4.417969 0 8 3.582031 8 8s-3.582031 8-8 8h-48c-4.417969 0-8 3.582031-8 8s3.582031 8 8 8h48c4.417969 0 8 3.582031 8 8s-3.582031 8-8 8h-120c-13.253906 0-24-10.746094-24-24 0-4.417969-3.582031-8-8-8s-8 3.582031-8 8c0 22.089844 17.910156 40 40 40h84.71875c24.863281 39.71875 68.421875 63.84375 115.28125 63.84375s90.417969-24.125 115.28125-63.84375h84.71875c22.089844 0 40-17.910156 40-40 0-4.417969-3.582031-8-8-8zm-232 96c-37.769531 0-73.335938-17.785156-96-48h16c13.253906 0 24-10.746094 24-24-.011719-5.910156-2.207031-11.605469-6.160156-16 8.148437-9.109375 8.148437-22.890625 0-32 8.148437-9.109375 8.148437-22.890625 0-32 3.953125-4.394531 6.148437-10.089844 6.160156-16 0-13.253906-10.746094-24-24-24h-16c22.664062-30.214844 58.230469-48 96-48s73.335938 17.785156 96 48h-16c-13.253906 0-24 10.746094-24 24 .011719 5.910156 2.207031 11.605469 6.160156 16-8.148437 9.109375-8.148437 22.890625 0 32-8.148437 9.109375-8.148437 22.890625 0 32-3.953125 4.394531-6.148437 10.089844-6.160156 16 0 13.253906 10.746094 24 24 24h16c-22.664062 30.214844-58.230469 48-96 48zm0 0" data-original="#000000" class="active-path" data-old_color="#000000" fill="#808080"/><path d="m240 208c6.578125.085938 11.878906 5.421875 11.921875 12 0 4.417969 3.578125 8 8 8 4.417969 0 8-3.582031 8-8-.03125-12.339844-8.113281-23.214844-19.921875-26.800781v-9.199219c0-4.417969-3.582031-8-8-8s-8 3.582031-8 8v9.199219c-13.265625 4.015625-21.601562 17.128906-19.597656 30.847656 2.003906 13.714844 13.738281 23.898437 27.597656 23.953125 6.628906 0 12 5.371094 12 12s-5.371094 12-12 12-12-5.371094-12-12c0-4.417969-3.582031-8-8-8s-8 3.582031-8 8c.039062 12.363281 8.160156 23.242188 20 26.800781v9.199219c0 4.417969 3.582031 8 8 8s8-3.582031 8-8v-9.199219c13.265625-4.015625 21.601562-17.128906 19.597656-30.847656-2.003906-13.714844-13.738281-23.898437-27.597656-23.953125-6.628906 0-12-5.371094-12-12s5.371094-12 12-12zm0 0" data-original="#000000" class="active-path" data-old_color="#000000" fill="#808080"/><path d="m240 440c-4.417969 0-8 3.582031-8 8v24c0 4.417969 3.582031 8 8 8s8-3.582031 8-8v-24c0-4.417969-3.582031-8-8-8zm0 0" data-original="#000000" class="active-path" data-old_color="#000000" fill="#808080"/><path d="m240 392c-4.417969 0-8 3.582031-8 8v16c0 4.417969 3.582031 8 8 8s8-3.582031 8-8v-16c0-4.417969-3.582031-8-8-8zm0 0" data-original="#000000" class="active-path" data-old_color="#000000" fill="#808080"/><path d="m240 40c4.417969 0 8-3.582031 8-8v-24c0-4.417969-3.582031-8-8-8s-8 3.582031-8 8v24c0 4.417969 3.582031 8 8 8zm0 0" data-original="#000000" class="active-path" data-old_color="#000000" fill="#808080"/><path d="m240 88c4.417969 0 8-3.582031 8-8v-16c0-4.417969-3.582031-8-8-8s-8 3.582031-8 8v16c0 4.417969 3.582031 8 8 8zm0 0" data-original="#000000" class="active-path" data-old_color="#000000" fill="#808080"/><path d="m284 316.078125c-27.257812 15.605469-60.742188 15.605469-88 0-3.796875-1.984375-8.488281-.625-10.632812 3.085937-2.148438 3.710938-.984376 8.457032 2.632812 10.757813 32.125 18.777344 71.875 18.777344 104 0 3.617188-2.300781 4.78125-7.046875 2.632812-10.757813-2.144531-3.710937-6.835937-5.070312-10.632812-3.085937zm0 0" data-original="#000000" class="active-path" data-old_color="#000000" fill="#808080"/><path d="m196 163.921875c27.257812-15.605469 60.742188-15.605469 88 0 1.21875.6875 2.597656 1.046875 4 1.039063 2.824219 0 5.441406-1.492188 6.878906-3.921876 1.074219-1.832031 1.375-4.019531.835938-6.078124-.539063-2.054688-1.875-3.8125-3.714844-4.882813-32.226562-18.394531-71.773438-18.394531-104 0-3.617188 2.300781-4.78125 7.046875-2.632812 10.757813 2.144531 3.710937 6.835937 5.070312 10.632812 3.085937zm0 0" data-original="#000000" class="active-path" data-old_color="#000000" fill="#808080"/><path d="m296 88h32v24c0 4.417969 3.582031 8 8 8s8-3.582031 8-8v-32c0-4.417969-3.582031-8-8-8h-19.121094l59.121094-53.199219 59.121094 53.199219h-19.121094c-4.417969 0-8 3.582031-8 8v32c0 4.417969 3.582031 8 8 8s8-3.582031 8-8v-24h32c3.296875-.007812 6.253906-2.042969 7.441406-5.121094 1.1875-3.082031.363282-6.578125-2.082031-8.800781l-80-72c-3.042969-2.746094-7.675781-2.746094-10.71875 0l-80 72c-2.445313 2.222656-3.269531 5.71875-2.082031 8.800781 1.1875 3.078125 4.144531 5.113282 7.441406 5.121094zm0 0" data-original="#000000" class="active-path" data-old_color="#000000" fill="#808080"/><path d="m168 392h-32v-24c0-4.417969-3.582031-8-8-8s-8 3.582031-8 8v32c0 4.417969 3.582031 8 8 8h19.121094l-59.121094 53.199219-59.121094-53.199219h19.121094c4.417969 0 8-3.582031 8-8v-64c0-4.417969-3.582031-8-8-8s-8 3.582031-8 8v56h-32c-3.296875.007812-6.253906 2.042969-7.441406 5.121094-1.1875 3.082031-.363282 6.578125 2.082031 8.800781l80 72c3.042969 2.746094 7.675781 2.746094 10.71875 0l80-72c2.445313-2.222656 3.269531-5.71875 2.082031-8.800781-1.1875-3.078125-4.144531-5.113282-7.441406-5.121094zm0 0" data-original="#000000" class="active-path" data-old_color="#000000" fill="#808080"/></g> </svg>
