<?xml version="1.0" encoding="UTF-8"?>
<svg width="12px" height="19px" viewBox="0 0 12 19" version="1.1" xmlns="http://www.w3.org/2000/svg" xmlns:xlink="http://www.w3.org/1999/xlink">
    <!-- Generator: Sketch 51.1 (57501) - http://www.bohemiancoding.com/sketch -->
    <title>XMLID_31_</title>
    <desc>Created with Sketch.</desc>
    <defs></defs>
    <g id="Welcome" stroke="none" stroke-width="1" fill="none" fill-rule="evenodd">
        <g id="BaoCao_DangKy" transform="translate(-851.000000, -471.000000)" fill="#ACB5BD" fill-rule="nonzero">
            <path d="M861.8,479.259109 L853.88,479.259109 L853.88,475.615385 C853.88,473.874121 855.279632,472.45749 857,472.45749 C858.720368,472.45749 860.12,473.874121 860.12,475.615385 L860.12,477.072874 C860.12,477.475336 860.442368,477.801619 860.84,477.801619 C861.237632,477.801619 861.56,477.475336 861.56,477.072874 L861.56,475.615385 C861.56,473.070462 859.514384,471 857,471 C854.485616,471 852.44,473.070462 852.44,475.615385 L852.44,479.259109 L852.2,479.259109 C851.537264,479.259109 851,479.802899 851,480.473684 L851,488.246964 C851,488.917749 851.537264,489.461538 852.2,489.461538 L861.8,489.461538 C862.462736,489.461538 863,488.917749 863,488.246964 L863,480.473684 C863,479.802899 862.462736,479.259109 861.8,479.259109 Z M855.615385,482.538462 C855.615385,481.773738 856.235277,481.153846 857,481.153846 C857.764677,481.153846 858.384615,481.773738 858.384615,482.538462 C858.384615,483.050908 858.106077,483.497954 857.692308,483.7374 L857.692308,485.769231 L856.307692,485.769231 L856.307692,483.7374 C855.893923,483.497954 855.615385,483.050908 855.615385,482.538462 Z" id="XMLID_31_"></path>
        </g>
    </g>
</svg>