<?xml version="1.0" encoding="UTF-8"?>
<svg width="11px" height="18px" viewBox="0 0 11 18" version="1.1" xmlns="http://www.w3.org/2000/svg" xmlns:xlink="http://www.w3.org/1999/xlink">
    <!-- Generator: Sketch 51.1 (57501) - http://www.bohemiancoding.com/sketch -->
    <title>phone</title>
    <desc>Created with Sketch.</desc>
    <defs></defs>
    <g id="Welcome" stroke="none" stroke-width="1" fill="none" fill-rule="evenodd">
        <g id="BaoCao_DangKy" transform="translate(-851.000000, -342.000000)" fill="#ACB5BD">
            <g id="phone" transform="translate(851.000000, 342.000000)">
                <g id="Group-14">
                    <path d="M9.37847059,0 L1.90752941,0 C1.19252941,0 0.615352941,0.569223529 0.615352941,1.26995294 L0.615352941,16.1650588 C0.615352941,16.8651529 1.19252941,17.4337412 1.90752941,17.4337412 L9.37847059,17.4337412 C10.0921765,17.4337412 10.6706471,16.8651529 10.6706471,16.1650588 L10.6706471,1.26995294 C10.6706471,0.569223529 10.0921765,0 9.37847059,0 Z M3.79952941,0.771247059 L7.48776471,0.771247059 C7.58094118,0.771247059 7.65664706,0.907835294 7.65664706,1.07682353 C7.65664706,1.24581176 7.58094118,1.38303529 7.48776471,1.38303529 L3.79952941,1.38303529 C3.70570588,1.38303529 3.63129412,1.24581176 3.63129412,1.07682353 C3.63129412,0.907835294 3.70570588,0.771247059 3.79952941,0.771247059 Z M5.64364706,16.1803059 C5.18876471,16.1803059 4.81864706,15.8169176 4.81864706,15.3696706 C4.81864706,14.9224235 5.18876471,14.5603059 5.64364706,14.5603059 C6.09723529,14.5603059 6.46735294,14.9224235 6.46735294,15.3696706 C6.46735294,15.8169176 6.09723529,16.1803059 5.64364706,16.1803059 Z M9.70264706,13.4047059 L1.584,13.4047059 L1.584,2.14284706 L9.70264706,2.14284706 L9.70264706,13.4047059 Z" id="Shape" fill-rule="nonzero"></path>
                </g>
            </g>
        </g>
    </g>
</svg>