<?xml version="1.0" encoding="UTF-8"?>
<svg width="11px" height="16px" viewBox="0 0 11 16" version="1.1" xmlns="http://www.w3.org/2000/svg" xmlns:xlink="http://www.w3.org/1999/xlink">
    <!-- Generator: Sketch 51.1 (57501) - http://www.bohemiancoding.com/sketch -->
    <title>ủe</title>
    <desc>Created with Sketch.</desc>
    <defs></defs>
    <g id="Welcome" stroke="none" stroke-width="1" fill="none" fill-rule="evenodd">
        <g id="BaoCao_DangKy" transform="translate(-746.000000, -277.000000)" fill="#ACB5BD">
            <g id="ủe" transform="translate(746.000000, 277.000000)">
                <g id="Group-14">
                    <g id="Group-15">
                        <path d="M5.43557143,6.71514286 C7.13559524,6.71514286 8.51347619,5.21171429 8.51347619,3.35742857 C8.51347619,1.50314286 7.13533333,0 5.43557143,0 C3.73580952,0 2.35714286,1.50342857 2.35714286,3.35771429 C2.35714286,5.212 3.73580952,6.71514286 5.43557143,6.71514286 Z" id="Path"></path>
                        <path d="M6.55259524,7.14285714 L3.94088095,7.14285714 C1.76785714,7.14285714 0,9.07171429 0,11.4422857 L0,14.9265714 L0.00811904762,14.9811429 L0.228119048,15.0562857 C2.30188095,15.7631429 4.10352381,15.9988571 5.58642857,15.9988571 C8.48283333,15.9988571 10.1616429,15.098 10.2650952,15.0405714 L10.4706905,14.9271429 L10.4926905,14.9271429 L10.4926905,11.4422857 C10.4934762,9.07171429 8.72561905,7.14285714 6.55259524,7.14285714 Z" id="Path"></path>
                    </g>
                </g>
            </g>
        </g>
    </g>
</svg>